<?xml version="1.0" encoding="us-ascii" standalone="no"?><svg xmlns="http://www.w3.org/2000/svg" xmlns:xlink="http://www.w3.org/1999/xlink" contentStyleType="text/css" height="2007px" preserveAspectRatio="none" style="width:1248px;height:2007px;background:#FFFFFF;" version="1.1" viewBox="0 0 1248 2007" width="1248px" zoomAndPan="magnify"><defs/><g><!--class Companion--><g id="elem_Companion"><rect codeLine="11" fill="#FFFFFF" height="125.4844" id="Companion" rx="2.5" ry="2.5" style="stroke:#000000;stroke-width:1.0;" width="382" x="94.5" y="285"/><ellipse cx="240.75" cy="299" fill="#FFFFFF" rx="9" ry="9" style="stroke:#000000;stroke-width:1.0;"/><path d="M243.0938,294.6719 C242.1563,294.2344 241.5625,294.0938 240.6875,294.0938 C238.0625,294.0938 236.0625,296.1719 236.0625,298.8906 L236.0625,300.0156 C236.0625,302.5938 238.1719,304.4844 241.0625,304.4844 C242.2813,304.4844 243.4375,304.1875 244.1875,303.6406 C244.7656,303.2344 245.0938,302.7813 245.0938,302.3906 C245.0938,301.9375 244.7031,301.5469 244.2344,301.5469 C244.0156,301.5469 243.8125,301.625 243.625,301.8125 C243.1719,302.2969 243.1719,302.2969 242.9844,302.3906 C242.5625,302.6563 241.875,302.7813 241.1094,302.7813 C239.0625,302.7813 237.7656,301.6875 237.7656,299.9844 L237.7656,298.8906 C237.7656,297.1094 239.0156,295.7969 240.75,295.7969 C241.3281,295.7969 241.9375,295.9531 242.4063,296.2031 C242.8906,296.4844 243.0625,296.7031 243.1563,297.1094 C243.2188,297.5156 243.25,297.6406 243.3906,297.7656 C243.5313,297.9063 243.7656,298.0156 243.9844,298.0156 C244.25,298.0156 244.5156,297.875 244.6875,297.6563 C244.7969,297.5 244.8281,297.3125 244.8281,296.8906 L244.8281,295.4688 C244.8281,295.0313 244.8125,294.9063 244.7188,294.75 C244.5625,294.4844 244.2813,294.3438 243.9844,294.3438 C243.6875,294.3438 243.4844,294.4375 243.2656,294.75 L243.0938,294.6719 Z " fill="#000000"/><text fill="#000000" font-family="Verdana" font-size="14" lengthAdjust="spacing" textLength="82" x="258.25" y="303.8467">Companion</text><line style="stroke:#000000;stroke-width:1.0;" x1="95.5" x2="475.5" y1="313" y2="313"/><line style="stroke:#000000;stroke-width:1.0;" x1="95.5" x2="475.5" y1="321" y2="321"/><ellipse cx="105.5" cy="334.6484" fill="#FFFFFF" rx="3" ry="3" style="stroke:#000000;stroke-width:1.0;"/><text fill="#000000" font-family="Verdana" font-size="14" lengthAdjust="spacing" textLength="348" x="112.5" y="337.9951">create(EditorHandler, List&lt;EditorInfo&gt;): ToolBar</text><ellipse cx="105.5" cy="350.9453" fill="#FFFFFF" rx="3" ry="3" style="stroke:#000000;stroke-width:1.0;"/><text fill="#000000" font-family="Verdana" font-size="14" lengthAdjust="spacing" textLength="355" x="112.5" y="354.292">create(EditorHandler, List&lt;EditorInfo&gt;): MenuBar</text><ellipse cx="105.5" cy="367.2422" fill="#FFFFFF" rx="3" ry="3" style="stroke:#000000;stroke-width:1.0;"/><text fill="#000000" font-family="Verdana" font-size="14" lengthAdjust="spacing" textLength="236" x="112.5" y="370.5889">toCorner(Dimension): Dimension</text><ellipse cx="105.5" cy="383.5391" fill="#FFFFFF" rx="3" ry="3" style="stroke:#000000;stroke-width:1.0;"/><text fill="#000000" font-family="Verdana" font-size="14" lengthAdjust="spacing" textLength="225" x="112.5" y="386.8857">toEqual(Dimension): Dimension</text><ellipse cx="105.5" cy="399.8359" fill="#FFFFFF" rx="3" ry="3" style="stroke:#000000;stroke-width:1.0;"/><text fill="#000000" font-family="Verdana" font-size="14" lengthAdjust="spacing" textLength="358" x="112.5" y="403.1826">from(Double, Double, Double, Double): Dimension</text></g><!--class Controller--><g id="elem_Controller"><rect codeLine="16" fill="#FFFFFF" height="60.2969" id="Controller" rx="2.5" ry="2.5" style="stroke:#000000;stroke-width:1.0;" width="112" x="932.5" y="494.5"/><ellipse cx="950.45" cy="508.5" fill="#FFFFFF" rx="9" ry="9" style="stroke:#000000;stroke-width:1.0;"/><path d="M952.7938,504.1719 C951.8563,503.7344 951.2625,503.5938 950.3875,503.5938 C947.7625,503.5938 945.7625,505.6719 945.7625,508.3906 L945.7625,509.5156 C945.7625,512.0938 947.8719,513.9844 950.7625,513.9844 C951.9813,513.9844 953.1375,513.6875 953.8875,513.1406 C954.4656,512.7344 954.7938,512.2813 954.7938,511.8906 C954.7938,511.4375 954.4031,511.0469 953.9344,511.0469 C953.7156,511.0469 953.5125,511.125 953.325,511.3125 C952.8719,511.7969 952.8719,511.7969 952.6844,511.8906 C952.2625,512.1563 951.575,512.2813 950.8094,512.2813 C948.7625,512.2813 947.4656,511.1875 947.4656,509.4844 L947.4656,508.3906 C947.4656,506.6094 948.7156,505.2969 950.45,505.2969 C951.0281,505.2969 951.6375,505.4531 952.1063,505.7031 C952.5906,505.9844 952.7625,506.2031 952.8563,506.6094 C952.9188,507.0156 952.95,507.1406 953.0906,507.2656 C953.2313,507.4063 953.4656,507.5156 953.6844,507.5156 C953.95,507.5156 954.2156,507.375 954.3875,507.1563 C954.4969,507 954.5281,506.8125 954.5281,506.3906 L954.5281,504.9688 C954.5281,504.5313 954.5125,504.4063 954.4188,504.25 C954.2625,503.9844 953.9813,503.8438 953.6844,503.8438 C953.3875,503.8438 953.1844,503.9375 952.9656,504.25 L952.7938,504.1719 Z " fill="#000000"/><text fill="#000000" font-family="Verdana" font-size="14" lengthAdjust="spacing" textLength="73" x="963.55" y="513.3467">Controller</text><line style="stroke:#000000;stroke-width:1.0;" x1="933.5" x2="1043.5" y1="522.5" y2="522.5"/><line style="stroke:#000000;stroke-width:1.0;" x1="933.5" x2="1043.5" y1="530.5" y2="530.5"/><ellipse cx="943.5" cy="544.1484" fill="#FFFFFF" rx="3" ry="3" style="stroke:#000000;stroke-width:1.0;"/><text fill="#000000" font-family="Verdana" font-size="14" lengthAdjust="spacing" textLength="88" x="950.5" y="547.4951">Controller():</text></g><!--class Dimension--><g id="elem_Dimension"><rect codeLine="19" fill="#FFFFFF" height="206.9688" id="Dimension" rx="2.5" ry="2.5" style="stroke:#000000;stroke-width:1.0;" width="289" x="247" y="1641"/><ellipse cx="349.75" cy="1655" fill="#FFFFFF" rx="9" ry="9" style="stroke:#000000;stroke-width:1.0;"/><path d="M352.0938,1650.6719 C351.1563,1650.2344 350.5625,1650.0938 349.6875,1650.0938 C347.0625,1650.0938 345.0625,1652.1719 345.0625,1654.8906 L345.0625,1656.0156 C345.0625,1658.5938 347.1719,1660.4844 350.0625,1660.4844 C351.2813,1660.4844 352.4375,1660.1875 353.1875,1659.6406 C353.7656,1659.2344 354.0938,1658.7813 354.0938,1658.3906 C354.0938,1657.9375 353.7031,1657.5469 353.2344,1657.5469 C353.0156,1657.5469 352.8125,1657.625 352.625,1657.8125 C352.1719,1658.2969 352.1719,1658.2969 351.9844,1658.3906 C351.5625,1658.6563 350.875,1658.7813 350.1094,1658.7813 C348.0625,1658.7813 346.7656,1657.6875 346.7656,1655.9844 L346.7656,1654.8906 C346.7656,1653.1094 348.0156,1651.7969 349.75,1651.7969 C350.3281,1651.7969 350.9375,1651.9531 351.4063,1652.2031 C351.8906,1652.4844 352.0625,1652.7031 352.1563,1653.1094 C352.2188,1653.5156 352.25,1653.6406 352.3906,1653.7656 C352.5313,1653.9063 352.7656,1654.0156 352.9844,1654.0156 C353.25,1654.0156 353.5156,1653.875 353.6875,1653.6563 C353.7969,1653.5 353.8281,1653.3125 353.8281,1652.8906 L353.8281,1651.4688 C353.8281,1651.0313 353.8125,1650.9063 353.7188,1650.75 C353.5625,1650.4844 353.2813,1650.3438 352.9844,1650.3438 C352.6875,1650.3438 352.4844,1650.4375 352.2656,1650.75 L352.0938,1650.6719 Z " fill="#000000"/><text fill="#000000" font-family="Verdana" font-size="14" lengthAdjust="spacing" textLength="76" x="367.25" y="1659.8467">Dimension</text><line style="stroke:#000000;stroke-width:1.0;" x1="248" x2="535" y1="1669" y2="1669"/><text fill="#000000" font-family="Verdana" font-size="14" lengthAdjust="spacing" textLength="107" x="253" y="1685.9951">height: Double</text><text fill="#000000" font-family="Verdana" font-size="14" lengthAdjust="spacing" textLength="167" x="253" y="1702.292">raw: Pair&lt;Point, Point&gt;</text><text fill="#000000" font-family="Verdana" font-size="14" lengthAdjust="spacing" textLength="100" x="253" y="1718.5889">width: Double</text><text fill="#000000" font-family="Verdana" font-size="14" lengthAdjust="spacing" textLength="221" x="253" y="1734.8857">boundaries: Pair&lt;Point, Point&gt;</text><line style="stroke:#000000;stroke-width:1.0;" x1="248" x2="535" y1="1742.1875" y2="1742.1875"/><ellipse cx="258" cy="1755.8359" fill="#FFFFFF" rx="3" ry="3" style="stroke:#000000;stroke-width:1.0;"/><text fill="#000000" font-family="Verdana" font-size="14" lengthAdjust="spacing" textLength="91" x="265" y="1759.1826">Dimension():</text><ellipse cx="258" cy="1772.1328" fill="#FFFFFF" rx="3" ry="3" style="stroke:#000000;stroke-width:1.0;"/><text fill="#000000" font-family="Verdana" font-size="14" lengthAdjust="spacing" textLength="255" x="265" y="1775.4795">setEnd(Double, Double): Dimension</text><ellipse cx="258" cy="1788.4297" fill="#FFFFFF" rx="3" ry="3" style="stroke:#000000;stroke-width:1.0;"/><text fill="#000000" font-family="Verdana" font-size="14" lengthAdjust="spacing" textLength="265" x="265" y="1791.7764">setStart(Double, Double): Dimension</text><ellipse cx="258" cy="1804.7266" fill="#FFFFFF" rx="3" ry="3" style="stroke:#000000;stroke-width:1.0;"/><text fill="#000000" font-family="Verdana" font-size="14" lengthAdjust="spacing" textLength="123" x="265" y="1808.0732">toString(): String</text><ellipse cx="258" cy="1821.0234" fill="#FFFFFF" rx="3" ry="3" style="stroke:#000000;stroke-width:1.0;"/><text fill="#000000" font-family="Verdana" font-size="14" lengthAdjust="spacing" textLength="177" x="265" y="1824.3701">copyTo(Dimension): Unit</text><ellipse cx="258" cy="1837.3203" fill="#FFFFFF" rx="3" ry="3" style="stroke:#000000;stroke-width:1.0;"/><text fill="#000000" font-family="Verdana" font-size="14" lengthAdjust="spacing" textLength="196" x="265" y="1840.667">copyFrom(Dimension): Unit</text></g><!--class Editor--><g id="elem_Editor"><rect codeLine="31" fill="#FFFFFF" height="337.3438" id="Editor" rx="2.5" ry="2.5" style="stroke:#000000;stroke-width:1.0;" width="291" x="319" y="639"/><ellipse cx="438.75" cy="653" fill="#FFFFFF" rx="9" ry="9" style="stroke:#000000;stroke-width:1.0;"/><path d="M441.0938,648.6719 C440.1563,648.2344 439.5625,648.0938 438.6875,648.0938 C436.0625,648.0938 434.0625,650.1719 434.0625,652.8906 L434.0625,654.0156 C434.0625,656.5938 436.1719,658.4844 439.0625,658.4844 C440.2813,658.4844 441.4375,658.1875 442.1875,657.6406 C442.7656,657.2344 443.0938,656.7813 443.0938,656.3906 C443.0938,655.9375 442.7031,655.5469 442.2344,655.5469 C442.0156,655.5469 441.8125,655.625 441.625,655.8125 C441.1719,656.2969 441.1719,656.2969 440.9844,656.3906 C440.5625,656.6563 439.875,656.7813 439.1094,656.7813 C437.0625,656.7813 435.7656,655.6875 435.7656,653.9844 L435.7656,652.8906 C435.7656,651.1094 437.0156,649.7969 438.75,649.7969 C439.3281,649.7969 439.9375,649.9531 440.4063,650.2031 C440.8906,650.4844 441.0625,650.7031 441.1563,651.1094 C441.2188,651.5156 441.25,651.6406 441.3906,651.7656 C441.5313,651.9063 441.7656,652.0156 441.9844,652.0156 C442.25,652.0156 442.5156,651.875 442.6875,651.6563 C442.7969,651.5 442.8281,651.3125 442.8281,650.8906 L442.8281,649.4688 C442.8281,649.0313 442.8125,648.9063 442.7188,648.75 C442.5625,648.4844 442.2813,648.3438 441.9844,648.3438 C441.6875,648.3438 441.4844,648.4375 441.2656,648.75 L441.0938,648.6719 Z " fill="#000000"/><text fill="#000000" font-family="Verdana" font-size="14" lengthAdjust="spacing" textLength="44" x="456.25" y="657.8467">Editor</text><line style="stroke:#000000;stroke-width:1.0;" x1="320" x2="609" y1="667" y2="667"/><text fill="#000000" font-family="Verdana" font-size="14" lengthAdjust="spacing" textLength="108" x="325" y="683.9951">dm: Dimension</text><text fill="#000000" font-family="Verdana" font-size="14" lengthAdjust="spacing" textLength="196" x="325" y="700.292">curProcessor: DmProcessor</text><text fill="#000000" font-family="Verdana" font-size="14" lengthAdjust="spacing" textLength="137" x="325" y="716.5889">shapes: ShapesList</text><text fill="#000000" font-family="Verdana" font-size="14" lengthAdjust="spacing" textLength="97" x="325" y="732.8857">shape: Shape</text><text fill="#000000" font-family="Verdana" font-size="14" lengthAdjust="spacing" textLength="175" x="325" y="749.1826">processor: DmProcessor</text><text fill="#000000" font-family="Verdana" font-size="14" lengthAdjust="spacing" textLength="193" x="325" y="765.4795">altProcessor: DmProcessor</text><text fill="#000000" font-family="Verdana" font-size="14" lengthAdjust="spacing" textLength="148" x="325" y="781.7764">gc: GraphicsContext</text><text fill="#000000" font-family="Verdana" font-size="14" lengthAdjust="spacing" textLength="199" x="325" y="798.0732">ctrlProcessor: DmProcessor</text><line style="stroke:#000000;stroke-width:1.0;" x1="320" x2="609" y1="805.375" y2="805.375"/><ellipse cx="330" cy="819.0234" fill="#FFFFFF" rx="3" ry="3" style="stroke:#000000;stroke-width:1.0;"/><text fill="#000000" font-family="Verdana" font-size="14" lengthAdjust="spacing" textLength="267" x="337" y="822.3701">Editor(ShapesList, GraphicsContext):</text><polygon fill="#FFFFFF" points="330,830.3203,334,834.3203,330,838.3203,326,834.3203" style="stroke:#000000;stroke-width:1.0;"/><text fill="#000000" font-family="Verdana" font-size="14" lengthAdjust="spacing" textLength="263" x="337" y="838.667">onMouseReleased(MouseEvent): Unit</text><ellipse cx="330" cy="851.6172" fill="#FFFFFF" rx="3" ry="3" style="stroke:#000000;stroke-width:1.0;"/><text fill="#000000" font-family="Verdana" font-size="14" lengthAdjust="spacing" textLength="155" x="337" y="854.9639">listenToEvents(): Unit</text><polygon fill="#FFFFFF" points="330,862.9141,334,866.9141,330,870.9141,326,866.9141" style="stroke:#000000;stroke-width:1.0;"/><text fill="#000000" font-family="Verdana" font-size="14" lengthAdjust="spacing" textLength="97" x="337" y="871.2607">redraw(): Unit</text><rect fill="#FFFFFF" height="6" style="stroke:#000000;stroke-width:1.0;" width="6" x="327" y="881.2109"/><text fill="#000000" font-family="Verdana" font-size="14" lengthAdjust="spacing" textLength="83" x="337" y="887.5576">clear(): Unit</text><polygon fill="#FFFFFF" points="330,895.5078,334,899.5078,330,903.5078,326,899.5078" style="stroke:#000000;stroke-width:1.0;"/><text fill="#000000" font-family="Verdana" font-size="14" lengthAdjust="spacing" textLength="135" x="337" y="903.8545">previewLine(): Unit</text><polygon fill="#FFFFFF" points="330,911.8047,334,915.8047,330,919.8047,326,915.8047" style="stroke:#000000;stroke-width:1.0;"/><text fill="#000000" font-family="Verdana" font-size="14" lengthAdjust="spacing" textLength="254" x="337" y="920.1514">onMousePressed(MouseEvent): Unit</text><polygon fill="#FFFFFF" points="330,928.1016,334,932.1016,330,936.1016,326,932.1016" style="stroke:#000000;stroke-width:1.0;"/><text fill="#000000" font-family="Verdana" font-size="14" lengthAdjust="spacing" textLength="203" x="337" y="936.4482">setPreviewProperties(): Unit</text><rect fill="#FFFFFF" height="6" style="stroke:#000000;stroke-width:1.0;" width="6" x="327" y="946.3984"/><text fill="#000000" font-family="Verdana" font-size="14" lengthAdjust="spacing" textLength="100" x="337" y="952.7451">drawAll(): Unit</text><polygon fill="#FFFFFF" points="330,960.6953,334,964.6953,330,968.6953,326,964.6953" style="stroke:#000000;stroke-width:1.0;"/><text fill="#000000" font-family="Verdana" font-size="14" lengthAdjust="spacing" textLength="259" x="337" y="969.042">onMouseDragged(MouseEvent): Unit</text></g><!--class EditorHandler--><g id="elem_EditorHandler"><rect codeLine="51" fill="#FFFFFF" height="109.1875" id="EditorHandler" rx="2.5" ry="2.5" style="stroke:#000000;stroke-width:1.0;" width="398" x="499.5" y="470"/><ellipse cx="645.25" cy="484" fill="#FFFFFF" rx="9" ry="9" style="stroke:#000000;stroke-width:1.0;"/><path d="M647.5938,479.6719 C646.6563,479.2344 646.0625,479.0938 645.1875,479.0938 C642.5625,479.0938 640.5625,481.1719 640.5625,483.8906 L640.5625,485.0156 C640.5625,487.5938 642.6719,489.4844 645.5625,489.4844 C646.7813,489.4844 647.9375,489.1875 648.6875,488.6406 C649.2656,488.2344 649.5938,487.7813 649.5938,487.3906 C649.5938,486.9375 649.2031,486.5469 648.7344,486.5469 C648.5156,486.5469 648.3125,486.625 648.125,486.8125 C647.6719,487.2969 647.6719,487.2969 647.4844,487.3906 C647.0625,487.6563 646.375,487.7813 645.6094,487.7813 C643.5625,487.7813 642.2656,486.6875 642.2656,484.9844 L642.2656,483.8906 C642.2656,482.1094 643.5156,480.7969 645.25,480.7969 C645.8281,480.7969 646.4375,480.9531 646.9063,481.2031 C647.3906,481.4844 647.5625,481.7031 647.6563,482.1094 C647.7188,482.5156 647.75,482.6406 647.8906,482.7656 C648.0313,482.9063 648.2656,483.0156 648.4844,483.0156 C648.75,483.0156 649.0156,482.875 649.1875,482.6563 C649.2969,482.5 649.3281,482.3125 649.3281,481.8906 L649.3281,480.4688 C649.3281,480.0313 649.3125,479.9063 649.2188,479.75 C649.0625,479.4844 648.7813,479.3438 648.4844,479.3438 C648.1875,479.3438 647.9844,479.4375 647.7656,479.75 L647.5938,479.6719 Z " fill="#000000"/><text fill="#000000" font-family="Verdana" font-size="14" lengthAdjust="spacing" textLength="99" x="662.75" y="488.8467">EditorHandler</text><line style="stroke:#000000;stroke-width:1.0;" x1="500.5" x2="896.5" y1="498" y2="498"/><line style="stroke:#000000;stroke-width:1.0;" x1="500.5" x2="896.5" y1="506" y2="506"/><ellipse cx="510.5" cy="519.6484" fill="#FFFFFF" rx="3" ry="3" style="stroke:#000000;stroke-width:1.0;"/><text fill="#000000" font-family="Verdana" font-size="14" lengthAdjust="spacing" textLength="374" x="517.5" y="522.9951">EditorHandler(Map&lt;String, EditorFactory&gt;, Canvas):</text><rect fill="#FFFFFF" height="6" style="stroke:#000000;stroke-width:1.0;" width="6" x="507.5" y="532.9453"/><text fill="#000000" font-family="Verdana" font-size="14" lengthAdjust="spacing" textLength="242" x="517.5" y="539.292">getOrCreateEditor(String): Editor</text><ellipse cx="510.5" cy="552.2422" fill="#FFFFFF" rx="3" ry="3" style="stroke:#000000;stroke-width:1.0;"/><text fill="#000000" font-family="Verdana" font-size="14" lengthAdjust="spacing" textLength="346" x="517.5" y="555.5889">listenToChanges(ChangeListener&lt;String&gt;): Unit</text><ellipse cx="510.5" cy="568.5391" fill="#FFFFFF" rx="3" ry="3" style="stroke:#000000;stroke-width:1.0;"/><text fill="#000000" font-family="Verdana" font-size="14" lengthAdjust="spacing" textLength="160" x="517.5" y="571.8857">useEditor(String): Unit</text></g><!--class MainController--><g id="elem_MainController"><rect codeLine="57" fill="#FFFFFF" height="92.8906" id="MainController" rx="2.5" ry="2.5" style="stroke:#000000;stroke-width:1.0;" width="220" x="878.5" y="301"/><ellipse cx="931.75" cy="315" fill="#FFFFFF" rx="9" ry="9" style="stroke:#000000;stroke-width:1.0;"/><path d="M934.0938,310.6719 C933.1563,310.2344 932.5625,310.0938 931.6875,310.0938 C929.0625,310.0938 927.0625,312.1719 927.0625,314.8906 L927.0625,316.0156 C927.0625,318.5938 929.1719,320.4844 932.0625,320.4844 C933.2813,320.4844 934.4375,320.1875 935.1875,319.6406 C935.7656,319.2344 936.0938,318.7813 936.0938,318.3906 C936.0938,317.9375 935.7031,317.5469 935.2344,317.5469 C935.0156,317.5469 934.8125,317.625 934.625,317.8125 C934.1719,318.2969 934.1719,318.2969 933.9844,318.3906 C933.5625,318.6563 932.875,318.7813 932.1094,318.7813 C930.0625,318.7813 928.7656,317.6875 928.7656,315.9844 L928.7656,314.8906 C928.7656,313.1094 930.0156,311.7969 931.75,311.7969 C932.3281,311.7969 932.9375,311.9531 933.4063,312.2031 C933.8906,312.4844 934.0625,312.7031 934.1563,313.1094 C934.2188,313.5156 934.25,313.6406 934.3906,313.7656 C934.5313,313.9063 934.7656,314.0156 934.9844,314.0156 C935.25,314.0156 935.5156,313.875 935.6875,313.6563 C935.7969,313.5 935.8281,313.3125 935.8281,312.8906 L935.8281,311.4688 C935.8281,311.0313 935.8125,310.9063 935.7188,310.75 C935.5625,310.4844 935.2813,310.3438 934.9844,310.3438 C934.6875,310.3438 934.4844,310.4375 934.2656,310.75 L934.0938,310.6719 Z " fill="#000000"/><text fill="#000000" font-family="Verdana" font-size="14" lengthAdjust="spacing" textLength="106" x="949.25" y="319.8467">MainController</text><line style="stroke:#000000;stroke-width:1.0;" x1="879.5" x2="1097.5" y1="329" y2="329"/><text fill="#000000" font-family="Verdana" font-size="14" lengthAdjust="spacing" textLength="207" x="884.5" y="345.9951">editorHandler: EditorHandler</text><text fill="#000000" font-family="Verdana" font-size="14" lengthAdjust="spacing" textLength="208" x="884.5" y="362.292">editorsInfo: List&lt;EditorInfo&gt;</text><line style="stroke:#000000;stroke-width:1.0;" x1="879.5" x2="1097.5" y1="369.5938" y2="369.5938"/><ellipse cx="889.5" cy="383.2422" fill="#FFFFFF" rx="3" ry="3" style="stroke:#000000;stroke-width:1.0;"/><text fill="#000000" font-family="Verdana" font-size="14" lengthAdjust="spacing" textLength="121" x="896.5" y="386.5889">MainController():</text></g><!--class MainView--><g id="elem_MainView"><rect codeLine="62" fill="#FFFFFF" height="92.8906" id="MainView" rx="2.5" ry="2.5" style="stroke:#000000;stroke-width:1.0;" width="152" x="560.5" y="132"/><ellipse cx="599.25" cy="146" fill="#FFFFFF" rx="9" ry="9" style="stroke:#000000;stroke-width:1.0;"/><path d="M601.5938,141.6719 C600.6563,141.2344 600.0625,141.0938 599.1875,141.0938 C596.5625,141.0938 594.5625,143.1719 594.5625,145.8906 L594.5625,147.0156 C594.5625,149.5938 596.6719,151.4844 599.5625,151.4844 C600.7813,151.4844 601.9375,151.1875 602.6875,150.6406 C603.2656,150.2344 603.5938,149.7813 603.5938,149.3906 C603.5938,148.9375 603.2031,148.5469 602.7344,148.5469 C602.5156,148.5469 602.3125,148.625 602.125,148.8125 C601.6719,149.2969 601.6719,149.2969 601.4844,149.3906 C601.0625,149.6563 600.375,149.7813 599.6094,149.7813 C597.5625,149.7813 596.2656,148.6875 596.2656,146.9844 L596.2656,145.8906 C596.2656,144.1094 597.5156,142.7969 599.25,142.7969 C599.8281,142.7969 600.4375,142.9531 600.9063,143.2031 C601.3906,143.4844 601.5625,143.7031 601.6563,144.1094 C601.7188,144.5156 601.75,144.6406 601.8906,144.7656 C602.0313,144.9063 602.2656,145.0156 602.4844,145.0156 C602.75,145.0156 603.0156,144.875 603.1875,144.6563 C603.2969,144.5 603.3281,144.3125 603.3281,143.8906 L603.3281,142.4688 C603.3281,142.0313 603.3125,141.9063 603.2188,141.75 C603.0625,141.4844 602.7813,141.3438 602.4844,141.3438 C602.1875,141.3438 601.9844,141.4375 601.7656,141.75 L601.5938,141.6719 Z " fill="#000000"/><text fill="#000000" font-family="Verdana" font-size="14" lengthAdjust="spacing" textLength="67" x="616.75" y="150.8467">MainView</text><line style="stroke:#000000;stroke-width:1.0;" x1="561.5" x2="711.5" y1="160" y2="160"/><text fill="#000000" font-family="Verdana" font-size="14" lengthAdjust="spacing" textLength="140" x="566.5" y="176.9951">ctrl: MainController</text><text fill="#000000" font-family="Verdana" font-size="14" lengthAdjust="spacing" textLength="124" x="566.5" y="193.292">root: BorderPane</text><line style="stroke:#000000;stroke-width:1.0;" x1="561.5" x2="711.5" y1="200.5938" y2="200.5938"/><ellipse cx="571.5" cy="214.2422" fill="#FFFFFF" rx="3" ry="3" style="stroke:#000000;stroke-width:1.0;"/><text fill="#000000" font-family="Verdana" font-size="14" lengthAdjust="spacing" textLength="82" x="578.5" y="217.5889">MainView():</text></g><!--class MenuBar--><g id="elem_MenuBar"><rect codeLine="67" fill="#FFFFFF" height="60.2969" id="MenuBar" rx="2.5" ry="2.5" style="stroke:#000000;stroke-width:1.0;" width="149" x="12" y="494.5"/><ellipse cx="51.75" cy="508.5" fill="#FFFFFF" rx="9" ry="9" style="stroke:#000000;stroke-width:1.0;"/><path d="M54.0938,504.1719 C53.1563,503.7344 52.5625,503.5938 51.6875,503.5938 C49.0625,503.5938 47.0625,505.6719 47.0625,508.3906 L47.0625,509.5156 C47.0625,512.0938 49.1719,513.9844 52.0625,513.9844 C53.2813,513.9844 54.4375,513.6875 55.1875,513.1406 C55.7656,512.7344 56.0938,512.2813 56.0938,511.8906 C56.0938,511.4375 55.7031,511.0469 55.2344,511.0469 C55.0156,511.0469 54.8125,511.125 54.625,511.3125 C54.1719,511.7969 54.1719,511.7969 53.9844,511.8906 C53.5625,512.1563 52.875,512.2813 52.1094,512.2813 C50.0625,512.2813 48.7656,511.1875 48.7656,509.4844 L48.7656,508.3906 C48.7656,506.6094 50.0156,505.2969 51.75,505.2969 C52.3281,505.2969 52.9375,505.4531 53.4063,505.7031 C53.8906,505.9844 54.0625,506.2031 54.1563,506.6094 C54.2188,507.0156 54.25,507.1406 54.3906,507.2656 C54.5313,507.4063 54.7656,507.5156 54.9844,507.5156 C55.25,507.5156 55.5156,507.375 55.6875,507.1563 C55.7969,507 55.8281,506.8125 55.8281,506.3906 L55.8281,504.9688 C55.8281,504.5313 55.8125,504.4063 55.7188,504.25 C55.5625,503.9844 55.2813,503.8438 54.9844,503.8438 C54.6875,503.8438 54.4844,503.9375 54.2656,504.25 L54.0938,504.1719 Z " fill="#000000"/><text fill="#000000" font-family="Verdana" font-size="14" lengthAdjust="spacing" textLength="62" x="69.25" y="513.3467">MenuBar</text><line style="stroke:#000000;stroke-width:1.0;" x1="13" x2="160" y1="522.5" y2="522.5"/><line style="stroke:#000000;stroke-width:1.0;" x1="13" x2="160" y1="530.5" y2="530.5"/><ellipse cx="23" cy="544.1484" fill="#FFFFFF" rx="3" ry="3" style="stroke:#000000;stroke-width:1.0;"/><text fill="#000000" font-family="Verdana" font-size="14" lengthAdjust="spacing" textLength="125" x="30" y="547.4951">MenuBar(Menu[]):</text></g><!--class MyApp--><g id="elem_MyApp"><rect codeLine="70" fill="#FFFFFF" height="60.2969" id="MyApp" rx="2.5" ry="2.5" style="stroke:#000000;stroke-width:1.0;" width="89" x="592" y="12"/><ellipse cx="609.95" cy="26" fill="#FFFFFF" rx="9" ry="9" style="stroke:#000000;stroke-width:1.0;"/><path d="M612.2938,21.6719 C611.3563,21.2344 610.7625,21.0938 609.8875,21.0938 C607.2625,21.0938 605.2625,23.1719 605.2625,25.8906 L605.2625,27.0156 C605.2625,29.5938 607.3719,31.4844 610.2625,31.4844 C611.4813,31.4844 612.6375,31.1875 613.3875,30.6406 C613.9656,30.2344 614.2938,29.7813 614.2938,29.3906 C614.2938,28.9375 613.9031,28.5469 613.4344,28.5469 C613.2156,28.5469 613.0125,28.625 612.825,28.8125 C612.3719,29.2969 612.3719,29.2969 612.1844,29.3906 C611.7625,29.6563 611.075,29.7813 610.3094,29.7813 C608.2625,29.7813 606.9656,28.6875 606.9656,26.9844 L606.9656,25.8906 C606.9656,24.1094 608.2156,22.7969 609.95,22.7969 C610.5281,22.7969 611.1375,22.9531 611.6063,23.2031 C612.0906,23.4844 612.2625,23.7031 612.3563,24.1094 C612.4188,24.5156 612.45,24.6406 612.5906,24.7656 C612.7313,24.9063 612.9656,25.0156 613.1844,25.0156 C613.45,25.0156 613.7156,24.875 613.8875,24.6563 C613.9969,24.5 614.0281,24.3125 614.0281,23.8906 L614.0281,22.4688 C614.0281,22.0313 614.0125,21.9063 613.9188,21.75 C613.7625,21.4844 613.4813,21.3438 613.1844,21.3438 C612.8875,21.3438 612.6844,21.4375 612.4656,21.75 L612.2938,21.6719 Z " fill="#000000"/><text fill="#000000" font-family="Verdana" font-size="14" lengthAdjust="spacing" textLength="50" x="623.05" y="30.8467">MyApp</text><line style="stroke:#000000;stroke-width:1.0;" x1="593" x2="680" y1="40" y2="40"/><line style="stroke:#000000;stroke-width:1.0;" x1="593" x2="680" y1="48" y2="48"/><ellipse cx="603" cy="61.6484" fill="#FFFFFF" rx="3" ry="3" style="stroke:#000000;stroke-width:1.0;"/><text fill="#000000" font-family="Verdana" font-size="14" lengthAdjust="spacing" textLength="65" x="610" y="64.9951">MyApp():</text></g><!--class Shape--><g id="elem_Shape"><rect codeLine="73" fill="#FFFFFF" height="206.9688" id="Shape" rx="2.5" ry="2.5" style="stroke:#000000;stroke-width:1.0;" width="216" x="461.5" y="1374"/><ellipse cx="543.25" cy="1388" fill="#FFFFFF" rx="9" ry="9" style="stroke:#000000;stroke-width:1.0;"/><path d="M545.5938,1383.6719 C544.6563,1383.2344 544.0625,1383.0938 543.1875,1383.0938 C540.5625,1383.0938 538.5625,1385.1719 538.5625,1387.8906 L538.5625,1389.0156 C538.5625,1391.5938 540.6719,1393.4844 543.5625,1393.4844 C544.7813,1393.4844 545.9375,1393.1875 546.6875,1392.6406 C547.2656,1392.2344 547.5938,1391.7813 547.5938,1391.3906 C547.5938,1390.9375 547.2031,1390.5469 546.7344,1390.5469 C546.5156,1390.5469 546.3125,1390.625 546.125,1390.8125 C545.6719,1391.2969 545.6719,1391.2969 545.4844,1391.3906 C545.0625,1391.6563 544.375,1391.7813 543.6094,1391.7813 C541.5625,1391.7813 540.2656,1390.6875 540.2656,1388.9844 L540.2656,1387.8906 C540.2656,1386.1094 541.5156,1384.7969 543.25,1384.7969 C543.8281,1384.7969 544.4375,1384.9531 544.9063,1385.2031 C545.3906,1385.4844 545.5625,1385.7031 545.6563,1386.1094 C545.7188,1386.5156 545.75,1386.6406 545.8906,1386.7656 C546.0313,1386.9063 546.2656,1387.0156 546.4844,1387.0156 C546.75,1387.0156 547.0156,1386.875 547.1875,1386.6563 C547.2969,1386.5 547.3281,1386.3125 547.3281,1385.8906 L547.3281,1384.4688 C547.3281,1384.0313 547.3125,1383.9063 547.2188,1383.75 C547.0625,1383.4844 546.7813,1383.3438 546.4844,1383.3438 C546.1875,1383.3438 545.9844,1383.4375 545.7656,1383.75 L545.5938,1383.6719 Z " fill="#000000"/><text fill="#000000" font-family="Verdana" font-size="14" lengthAdjust="spacing" textLength="45" x="560.75" y="1392.8467">Shape</text><line style="stroke:#000000;stroke-width:1.0;" x1="462.5" x2="676.5" y1="1402" y2="1402"/><text fill="#000000" font-family="Verdana" font-size="14" lengthAdjust="spacing" textLength="132" x="467.5" y="1418.9951">colorStroke: Color</text><text fill="#000000" font-family="Verdana" font-size="14" lengthAdjust="spacing" textLength="108" x="467.5" y="1435.292">dm: Dimension</text><text fill="#000000" font-family="Verdana" font-size="14" lengthAdjust="spacing" textLength="103" x="467.5" y="1451.5889">colorFill: Color</text><text fill="#000000" font-family="Verdana" font-size="14" lengthAdjust="spacing" textLength="148" x="467.5" y="1467.8857">gc: GraphicsContext</text><line style="stroke:#000000;stroke-width:1.0;" x1="462.5" x2="676.5" y1="1475.1875" y2="1475.1875"/><ellipse cx="472.5" cy="1488.8359" fill="#FFFFFF" rx="3" ry="3" style="stroke:#000000;stroke-width:1.0;"/><text fill="#000000" font-family="Verdana" font-size="14" lengthAdjust="spacing" textLength="182" x="479.5" y="1492.1826">Shape(GraphicsContext):</text><rect fill="#FFFFFF" height="6" style="stroke:#000000;stroke-width:1.0;" width="6" x="469.5" y="1502.1328"/><text fill="#000000" font-family="Verdana" font-size="14" lengthAdjust="spacing" textLength="147" x="479.5" y="1508.4795">setProperties(): Unit</text><ellipse cx="472.5" cy="1521.4297" fill="#FFFFFF" rx="3" ry="3" style="stroke:#000000;stroke-width:1.0;"/><text fill="#000000" font-family="Verdana" font-size="14" lengthAdjust="spacing" textLength="82" x="479.5" y="1524.7764">draw(): Unit</text><ellipse cx="472.5" cy="1537.7266" fill="#FFFFFF" rx="3" ry="3" style="stroke:#000000;stroke-width:1.0;"/><text fill="#000000" font-family="Verdana" font-size="14" lengthAdjust="spacing" textLength="158" x="479.5" y="1541.0732">draw(Dimension): Unit</text><ellipse cx="472.5" cy="1554.0234" fill="#FFFFFF" rx="3" ry="3" style="stroke:#000000;stroke-width:1.0;"/><text fill="#000000" font-family="Verdana" font-size="14" lengthAdjust="spacing" textLength="99" x="479.5" y="1557.3701">copy(): Shape</text><ellipse cx="472.5" cy="1570.3203" fill="#FFFFFF" rx="3" ry="3" style="stroke:#000000;stroke-width:1.0;"/><text fill="#000000" font-family="Verdana" font-size="14" lengthAdjust="spacing" textLength="192" x="479.5" y="1573.667">drawWithProperties(): Unit</text></g><!--class ShapeIterator--><g id="elem_ShapeIterator"><rect codeLine="85" fill="#FFFFFF" height="92.8906" id="ShapeIterator" rx="2.5" ry="2.5" style="stroke:#000000;stroke-width:1.0;" width="159" x="533" y="1221"/><ellipse cx="559.5" cy="1235" fill="#FFFFFF" rx="9" ry="9" style="stroke:#000000;stroke-width:1.0;"/><path d="M561.8438,1230.6719 C560.9063,1230.2344 560.3125,1230.0938 559.4375,1230.0938 C556.8125,1230.0938 554.8125,1232.1719 554.8125,1234.8906 L554.8125,1236.0156 C554.8125,1238.5938 556.9219,1240.4844 559.8125,1240.4844 C561.0313,1240.4844 562.1875,1240.1875 562.9375,1239.6406 C563.5156,1239.2344 563.8438,1238.7813 563.8438,1238.3906 C563.8438,1237.9375 563.4531,1237.5469 562.9844,1237.5469 C562.7656,1237.5469 562.5625,1237.625 562.375,1237.8125 C561.9219,1238.2969 561.9219,1238.2969 561.7344,1238.3906 C561.3125,1238.6563 560.625,1238.7813 559.8594,1238.7813 C557.8125,1238.7813 556.5156,1237.6875 556.5156,1235.9844 L556.5156,1234.8906 C556.5156,1233.1094 557.7656,1231.7969 559.5,1231.7969 C560.0781,1231.7969 560.6875,1231.9531 561.1563,1232.2031 C561.6406,1232.4844 561.8125,1232.7031 561.9063,1233.1094 C561.9688,1233.5156 562,1233.6406 562.1406,1233.7656 C562.2813,1233.9063 562.5156,1234.0156 562.7344,1234.0156 C563,1234.0156 563.2656,1233.875 563.4375,1233.6563 C563.5469,1233.5 563.5781,1233.3125 563.5781,1232.8906 L563.5781,1231.4688 C563.5781,1231.0313 563.5625,1230.9063 563.4688,1230.75 C563.3125,1230.4844 563.0313,1230.3438 562.7344,1230.3438 C562.4375,1230.3438 562.2344,1230.4375 562.0156,1230.75 L561.8438,1230.6719 Z " fill="#000000"/><text fill="#000000" font-family="Verdana" font-size="14" lengthAdjust="spacing" textLength="101" x="574.5" y="1239.8467">ShapeIterator</text><line style="stroke:#000000;stroke-width:1.0;" x1="534" x2="691" y1="1249" y2="1249"/><line style="stroke:#000000;stroke-width:1.0;" x1="534" x2="691" y1="1257" y2="1257"/><ellipse cx="544" cy="1270.6484" fill="#FFFFFF" rx="3" ry="3" style="stroke:#000000;stroke-width:1.0;"/><text fill="#000000" font-family="Verdana" font-size="14" lengthAdjust="spacing" textLength="116" x="551" y="1273.9951">ShapeIterator():</text><ellipse cx="544" cy="1286.9453" fill="#FFFFFF" rx="3" ry="3" style="stroke:#000000;stroke-width:1.0;"/><text fill="#000000" font-family="Verdana" font-size="14" lengthAdjust="spacing" textLength="135" x="551" y="1290.292">hasNext(): Boolean</text><ellipse cx="544" cy="1303.2422" fill="#FFFFFF" rx="3" ry="3" style="stroke:#000000;stroke-width:1.0;"/><text fill="#000000" font-family="Verdana" font-size="14" lengthAdjust="spacing" textLength="97" x="551" y="1306.5889">next(): Shape</text></g><!--class ShapesList--><g id="elem_ShapesList"><rect codeLine="90" fill="#FFFFFF" height="125.4844" id="ShapesList" rx="2.5" ry="2.5" style="stroke:#000000;stroke-width:1.0;" width="222" x="562.5" y="1036"/><ellipse cx="630.75" cy="1050" fill="#FFFFFF" rx="9" ry="9" style="stroke:#000000;stroke-width:1.0;"/><path d="M633.0938,1045.6719 C632.1563,1045.2344 631.5625,1045.0938 630.6875,1045.0938 C628.0625,1045.0938 626.0625,1047.1719 626.0625,1049.8906 L626.0625,1051.0156 C626.0625,1053.5938 628.1719,1055.4844 631.0625,1055.4844 C632.2813,1055.4844 633.4375,1055.1875 634.1875,1054.6406 C634.7656,1054.2344 635.0938,1053.7813 635.0938,1053.3906 C635.0938,1052.9375 634.7031,1052.5469 634.2344,1052.5469 C634.0156,1052.5469 633.8125,1052.625 633.625,1052.8125 C633.1719,1053.2969 633.1719,1053.2969 632.9844,1053.3906 C632.5625,1053.6563 631.875,1053.7813 631.1094,1053.7813 C629.0625,1053.7813 627.7656,1052.6875 627.7656,1050.9844 L627.7656,1049.8906 C627.7656,1048.1094 629.0156,1046.7969 630.75,1046.7969 C631.3281,1046.7969 631.9375,1046.9531 632.4063,1047.2031 C632.8906,1047.4844 633.0625,1047.7031 633.1563,1048.1094 C633.2188,1048.5156 633.25,1048.6406 633.3906,1048.7656 C633.5313,1048.9063 633.7656,1049.0156 633.9844,1049.0156 C634.25,1049.0156 634.5156,1048.875 634.6875,1048.6563 C634.7969,1048.5 634.8281,1048.3125 634.8281,1047.8906 L634.8281,1046.4688 C634.8281,1046.0313 634.8125,1045.9063 634.7188,1045.75 C634.5625,1045.4844 634.2813,1045.3438 633.9844,1045.3438 C633.6875,1045.3438 633.4844,1045.4375 633.2656,1045.75 L633.0938,1045.6719 Z " fill="#000000"/><text fill="#000000" font-family="Verdana" font-size="14" lengthAdjust="spacing" textLength="78" x="648.25" y="1054.8467">ShapesList</text><line style="stroke:#000000;stroke-width:1.0;" x1="563.5" x2="783.5" y1="1064" y2="1064"/><text fill="#000000" font-family="Verdana" font-size="14" lengthAdjust="spacing" textLength="57" x="568.5" y="1080.9951">size: Int</text><line style="stroke:#000000;stroke-width:1.0;" x1="563.5" x2="783.5" y1="1088.2969" y2="1088.2969"/><ellipse cx="573.5" cy="1101.9453" fill="#FFFFFF" rx="3" ry="3" style="stroke:#000000;stroke-width:1.0;"/><text fill="#000000" font-family="Verdana" font-size="14" lengthAdjust="spacing" textLength="113" x="580.5" y="1105.292">ShapesList(Int):</text><ellipse cx="573.5" cy="1118.2422" fill="#FFFFFF" rx="3" ry="3" style="stroke:#000000;stroke-width:1.0;"/><text fill="#000000" font-family="Verdana" font-size="14" lengthAdjust="spacing" textLength="123" x="580.5" y="1121.5889">toString(): String</text><ellipse cx="573.5" cy="1134.5391" fill="#FFFFFF" rx="3" ry="3" style="stroke:#000000;stroke-width:1.0;"/><text fill="#000000" font-family="Verdana" font-size="14" lengthAdjust="spacing" textLength="119" x="580.5" y="1137.8857">add(Shape): Unit</text><ellipse cx="573.5" cy="1150.8359" fill="#FFFFFF" rx="3" ry="3" style="stroke:#000000;stroke-width:1.0;"/><text fill="#000000" font-family="Verdana" font-size="14" lengthAdjust="spacing" textLength="198" x="580.5" y="1154.1826">iterator(): Iterator&lt;Shape&gt;</text></g><!--class ToolBar--><g id="elem_ToolBar"><rect codeLine="97" fill="#FFFFFF" height="60.2969" id="ToolBar" rx="2.5" ry="2.5" style="stroke:#000000;stroke-width:1.0;" width="179" x="196" y="494.5"/><ellipse cx="254.25" cy="508.5" fill="#FFFFFF" rx="9" ry="9" style="stroke:#000000;stroke-width:1.0;"/><path d="M256.5938,504.1719 C255.6563,503.7344 255.0625,503.5938 254.1875,503.5938 C251.5625,503.5938 249.5625,505.6719 249.5625,508.3906 L249.5625,509.5156 C249.5625,512.0938 251.6719,513.9844 254.5625,513.9844 C255.7813,513.9844 256.9375,513.6875 257.6875,513.1406 C258.2656,512.7344 258.5938,512.2813 258.5938,511.8906 C258.5938,511.4375 258.2031,511.0469 257.7344,511.0469 C257.5156,511.0469 257.3125,511.125 257.125,511.3125 C256.6719,511.7969 256.6719,511.7969 256.4844,511.8906 C256.0625,512.1563 255.375,512.2813 254.6094,512.2813 C252.5625,512.2813 251.2656,511.1875 251.2656,509.4844 L251.2656,508.3906 C251.2656,506.6094 252.5156,505.2969 254.25,505.2969 C254.8281,505.2969 255.4375,505.4531 255.9063,505.7031 C256.3906,505.9844 256.5625,506.2031 256.6563,506.6094 C256.7188,507.0156 256.75,507.1406 256.8906,507.2656 C257.0313,507.4063 257.2656,507.5156 257.4844,507.5156 C257.75,507.5156 258.0156,507.375 258.1875,507.1563 C258.2969,507 258.3281,506.8125 258.3281,506.3906 L258.3281,504.9688 C258.3281,504.5313 258.3125,504.4063 258.2188,504.25 C258.0625,503.9844 257.7813,503.8438 257.4844,503.8438 C257.1875,503.8438 256.9844,503.9375 256.7656,504.25 L256.5938,504.1719 Z " fill="#000000"/><text fill="#000000" font-family="Verdana" font-size="14" lengthAdjust="spacing" textLength="55" x="271.75" y="513.3467">ToolBar</text><line style="stroke:#000000;stroke-width:1.0;" x1="197" x2="374" y1="522.5" y2="522.5"/><line style="stroke:#000000;stroke-width:1.0;" x1="197" x2="374" y1="530.5" y2="530.5"/><ellipse cx="207" cy="544.1484" fill="#FFFFFF" rx="3" ry="3" style="stroke:#000000;stroke-width:1.0;"/><text fill="#000000" font-family="Verdana" font-size="14" lengthAdjust="spacing" textLength="155" x="214" y="547.4951">ToolBar(List&lt;Node&gt;):</text></g><!--class Point--><g id="elem_Point"><rect codeLine="100" fill="#FFFFFF" height="92.8906" id="Point" rx="2.5" ry="2.5" style="stroke:#000000;stroke-width:1.0;" width="187" x="298" y="1908"/><ellipse cx="368.75" cy="1922" fill="#FFFFFF" rx="9" ry="9" style="stroke:#000000;stroke-width:1.0;"/><path d="M367.5469,1922.875 L369,1922.875 L369,1922.9844 C369,1923.3906 369.0313,1923.5469 369.1094,1923.7031 C369.2656,1923.9531 369.5469,1924.1094 369.8438,1924.1094 C370.0938,1924.1094 370.3594,1923.9688 370.5156,1923.75 C370.6406,1923.5938 370.6719,1923.4375 370.6719,1922.9844 L370.6719,1921.0625 C370.6719,1920.9063 370.6719,1920.8594 370.6563,1920.7031 C370.5938,1920.2344 370.2813,1919.9219 369.8281,1919.9219 C369.5781,1919.9219 369.3125,1920.0625 369.1406,1920.2813 C369.0313,1920.4531 369,1920.6094 369,1921.0625 L369,1921.1875 L367.5469,1921.1875 L367.5469,1918.7813 L371.5313,1918.7813 L371.5313,1919.6406 C371.5313,1920.0469 371.5625,1920.2188 371.6406,1920.375 C371.8125,1920.625 372.0938,1920.7813 372.375,1920.7813 C372.6406,1920.7813 372.9063,1920.6406 373.0781,1920.4219 C373.1875,1920.25 373.2188,1920.1094 373.2188,1919.6406 L373.2188,1917.0938 L365.5938,1917.0938 C365.1563,1917.0938 365.0313,1917.1094 364.875,1917.2031 C364.625,1917.3594 364.4688,1917.6563 364.4688,1917.9375 C364.4688,1918.2188 364.6094,1918.4688 364.8281,1918.6406 C364.9844,1918.75 365.1719,1918.7813 365.5938,1918.7813 L365.8438,1918.7813 L365.8438,1925.2969 L365.5938,1925.2969 C365.1875,1925.2969 365.0313,1925.3125 364.875,1925.4219 C364.625,1925.5938 364.4688,1925.8594 364.4688,1926.1563 C364.4688,1926.4219 364.6094,1926.6719 364.8281,1926.8281 C364.9688,1926.9531 365.2031,1927 365.5938,1927 L373.5938,1927 L373.5938,1924.4219 C373.5938,1923.9844 373.5625,1923.8438 373.4844,1923.6875 C373.3125,1923.4375 373.0313,1923.2813 372.75,1923.2813 C372.4844,1923.2813 372.2188,1923.3906 372.0469,1923.6406 C371.9375,1923.7969 371.9063,1923.9375 371.9063,1924.4219 L371.9063,1925.2969 L367.5469,1925.2969 L367.5469,1922.875 Z " fill="#000000"/><text fill="#000000" font-family="Verdana" font-size="14" lengthAdjust="spacing" textLength="38" x="386.25" y="1926.8467">Point</text><line style="stroke:#000000;stroke-width:1.0;" x1="299" x2="484" y1="1936" y2="1936"/><text fill="#000000" font-family="Verdana" font-size="14" lengthAdjust="spacing" textLength="68" x="304" y="1952.9951">x: Double</text><text fill="#000000" font-family="Verdana" font-size="14" lengthAdjust="spacing" textLength="68" x="304" y="1969.292">y: Double</text><line style="stroke:#000000;stroke-width:1.0;" x1="299" x2="484" y1="1976.5938" y2="1976.5938"/><ellipse cx="309" cy="1990.2422" fill="#FFFFFF" rx="3" ry="3" style="stroke:#000000;stroke-width:1.0;"/><text fill="#000000" font-family="Verdana" font-size="14" lengthAdjust="spacing" textLength="163" x="316" y="1993.5889">Point(Double, Double):</text></g><!--class ScopeInfo--><g id="elem_ScopeInfo"><rect codeLine="105" fill="#FFFFFF" height="76.5938" id="ScopeInfo" rx="2.5" ry="2.5" style="stroke:#000000;stroke-width:1.0;" width="162" x="1079.5" y="486"/><ellipse cx="1120.25" cy="500" fill="#FFFFFF" rx="9" ry="9" style="stroke:#000000;stroke-width:1.0;"/><path d="M1119.0469,500.875 L1120.5,500.875 L1120.5,500.9844 C1120.5,501.3906 1120.5313,501.5469 1120.6094,501.7031 C1120.7656,501.9531 1121.0469,502.1094 1121.3438,502.1094 C1121.5938,502.1094 1121.8594,501.9688 1122.0156,501.75 C1122.1406,501.5938 1122.1719,501.4375 1122.1719,500.9844 L1122.1719,499.0625 C1122.1719,498.9063 1122.1719,498.8594 1122.1563,498.7031 C1122.0938,498.2344 1121.7813,497.9219 1121.3281,497.9219 C1121.0781,497.9219 1120.8125,498.0625 1120.6406,498.2813 C1120.5313,498.4531 1120.5,498.6094 1120.5,499.0625 L1120.5,499.1875 L1119.0469,499.1875 L1119.0469,496.7813 L1123.0313,496.7813 L1123.0313,497.6406 C1123.0313,498.0469 1123.0625,498.2188 1123.1406,498.375 C1123.3125,498.625 1123.5938,498.7813 1123.875,498.7813 C1124.1406,498.7813 1124.4063,498.6406 1124.5781,498.4219 C1124.6875,498.25 1124.7188,498.1094 1124.7188,497.6406 L1124.7188,495.0938 L1117.0938,495.0938 C1116.6563,495.0938 1116.5313,495.1094 1116.375,495.2031 C1116.125,495.3594 1115.9688,495.6563 1115.9688,495.9375 C1115.9688,496.2188 1116.1094,496.4688 1116.3281,496.6406 C1116.4844,496.75 1116.6719,496.7813 1117.0938,496.7813 L1117.3438,496.7813 L1117.3438,503.2969 L1117.0938,503.2969 C1116.6875,503.2969 1116.5313,503.3125 1116.375,503.4219 C1116.125,503.5938 1115.9688,503.8594 1115.9688,504.1563 C1115.9688,504.4219 1116.1094,504.6719 1116.3281,504.8281 C1116.4688,504.9531 1116.7031,505 1117.0938,505 L1125.0938,505 L1125.0938,502.4219 C1125.0938,501.9844 1125.0625,501.8438 1124.9844,501.6875 C1124.8125,501.4375 1124.5313,501.2813 1124.25,501.2813 C1123.9844,501.2813 1123.7188,501.3906 1123.5469,501.6406 C1123.4375,501.7969 1123.4063,501.9375 1123.4063,502.4219 L1123.4063,503.2969 L1119.0469,503.2969 L1119.0469,500.875 Z " fill="#000000"/><text fill="#000000" font-family="Verdana" font-size="14" lengthAdjust="spacing" textLength="73" x="1137.75" y="504.8467">ScopeInfo</text><line style="stroke:#000000;stroke-width:1.0;" x1="1080.5" x2="1240.5" y1="514" y2="514"/><text fill="#000000" font-family="Verdana" font-size="14" lengthAdjust="spacing" textLength="107" x="1085.5" y="530.9951">canvas: Canvas</text><line style="stroke:#000000;stroke-width:1.0;" x1="1080.5" x2="1240.5" y1="538.2969" y2="538.2969"/><ellipse cx="1090.5" cy="551.9453" fill="#FFFFFF" rx="3" ry="3" style="stroke:#000000;stroke-width:1.0;"/><text fill="#000000" font-family="Verdana" font-size="14" lengthAdjust="spacing" textLength="138" x="1097.5" y="555.292">ScopeInfo(Canvas):</text></g><!--reverse link Companion to Dimension--><g id="link_Companion_Dimension"><path codeLine="110" d="M178.5,426.03 C178.5,693.29 178.5,1710 178.5,1710 C178.5,1710 208.923,1710 246.773,1710 " fill="none" id="Companion-backto-Dimension" style="stroke:#820000;stroke-width:1.0;"/><ellipse cx="178.5" cy="418.03" fill="#FFFFFF" rx="8" ry="8" style="stroke:#820000;stroke-width:1.0;"/><line style="stroke:#820000;stroke-width:1.0;" x1="178.5" x2="178.5" y1="426.03" y2="410.03"/><line style="stroke:#820000;stroke-width:1.0;" x1="170.5" x2="186.5" y1="418.03" y2="418.03"/></g><!--link Companion to Dimension--><g id="link_Companion_Dimension"><path codeLine="111" d="M169.75,410.39 C169.75,686.67 169.75,1779 169.75,1779 C169.75,1779 198.781,1779 240.996,1779 " fill="none" id="Companion-to-Dimension" style="stroke:#595959;stroke-width:1.0;stroke-dasharray:7.0,7.0;"/><polygon fill="#595959" points="246.996,1779,237.996,1775,241.996,1779,237.996,1783,246.996,1779" style="stroke:#595959;stroke-width:1.0;"/><text fill="#000000" font-family="Verdana" font-size="13" lengthAdjust="spacing" textLength="41" x="127.75" y="1129.3859">create</text></g><!--link Companion to EditorHandler--><g id="link_Companion_EditorHandler"><path codeLine="112" d="M476.56,400 C513.073,400 540.167,400 540.167,400 C540.167,400 540.167,430.44 540.167,463.89 " fill="none" id="Companion-to-EditorHandler" style="stroke:#595959;stroke-width:1.0;stroke-dasharray:7.0,7.0;"/><polygon fill="#595959" points="540.167,469.89,544.167,460.89,540.167,464.89,536.167,460.89,540.167,469.89" style="stroke:#595959;stroke-width:1.0;"/></g><!--link Companion to EditorHandler--><g id="link_Companion_EditorHandler"><path codeLine="113" d="M476.58,405 C502.187,405 519.833,405 519.833,405 C519.833,405 519.833,432.48 519.833,464 " fill="none" id="Companion-to-EditorHandler-1" style="stroke:#595959;stroke-width:1.0;stroke-dasharray:7.0,7.0;"/><polygon fill="#595959" points="519.833,470,523.833,461,519.833,465,515.833,461,519.833,470" style="stroke:#595959;stroke-width:1.0;"/></g><!--link Companion to MenuBar--><g id="link_Companion_MenuBar"><path codeLine="114" d="M116.667,410.4 C116.667,438.82 116.667,465.09 116.667,488.04 " fill="none" id="Companion-to-MenuBar" style="stroke:#595959;stroke-width:1.0;stroke-dasharray:7.0,7.0;"/><polygon fill="#595959" points="116.667,494.04,120.667,485.04,116.667,489.04,112.667,485.04,116.667,494.04" style="stroke:#595959;stroke-width:1.0;"/><text fill="#000000" font-family="Verdana" font-size="13" lengthAdjust="spacing" textLength="41" x="74.6667" y="448.2869">create</text></g><!--reverse link Companion to MenuBar--><g id="link_Companion_MenuBar"><path codeLine="115" d="M138.833,426.4 C138.833,454.82 138.833,471.09 138.833,494.04 " fill="none" id="Companion-backto-MenuBar" style="stroke:#820000;stroke-width:1.0;"/><ellipse cx="138.833" cy="418.4" fill="#FFFFFF" rx="8" ry="8" style="stroke:#820000;stroke-width:1.0;"/><line style="stroke:#820000;stroke-width:1.0;" x1="138.833" x2="138.833" y1="426.4" y2="410.4"/><line style="stroke:#820000;stroke-width:1.0;" x1="130.833" x2="146.833" y1="418.4" y2="418.4"/></g><!--reverse link Companion to ToolBar--><g id="link_Companion_ToolBar"><path codeLine="116" d="M285.5,426.4 C285.5,454.82 285.5,471.09 285.5,494.04 " fill="none" id="Companion-backto-ToolBar" style="stroke:#820000;stroke-width:1.0;"/><ellipse cx="285.5" cy="418.4" fill="#FFFFFF" rx="8" ry="8" style="stroke:#820000;stroke-width:1.0;"/><line style="stroke:#820000;stroke-width:1.0;" x1="285.5" x2="285.5" y1="426.4" y2="410.4"/><line style="stroke:#820000;stroke-width:1.0;" x1="277.5" x2="293.5" y1="418.4" y2="418.4"/></g><!--link Companion to ToolBar--><g id="link_Companion_ToolBar"><path codeLine="117" d="M330.25,410.4 C330.25,438.82 330.25,465.09 330.25,488.04 " fill="none" id="Companion-to-ToolBar" style="stroke:#595959;stroke-width:1.0;stroke-dasharray:7.0,7.0;"/><polygon fill="#595959" points="330.25,494.04,334.25,485.04,330.25,489.04,326.25,485.04,330.25,494.04" style="stroke:#595959;stroke-width:1.0;"/><text fill="#000000" font-family="Verdana" font-size="13" lengthAdjust="spacing" textLength="41" x="288.25" y="448.2869">create</text></g><!--link Dimension to Dimension--><g id="link_Dimension_Dimension"><path codeLine="118" d="M283,1640.842 C283,1628.962 283,1621 283,1621 C283,1621 230,1621 230,1621 C230,1621 230,1878 230,1878 C230,1878 272.5,1878 272.5,1878 C272.5,1878 272.5,1871.447 272.5,1854.04 " fill="none" id="Dimension-to-Dimension" style="stroke:#595959;stroke-width:1.0;stroke-dasharray:7.0,7.0;"/><polygon fill="#595959" points="272.5,1848.04,268.5,1857.04,272.5,1853.04,276.5,1857.04,272.5,1848.04" style="stroke:#595959;stroke-width:1.0;"/></g><!--link Dimension to Point--><g id="link_Dimension_Point"><path codeLine="119" d="M360.333,1848.27 C360.333,1869.143 360.333,1884.081 360.333,1901.7842 " fill="none" id="Dimension-to-Point" style="stroke:#595959;stroke-width:1.0;stroke-dasharray:7.0,7.0;"/><polygon fill="#595959" points="360.333,1907.7842,364.333,1898.7842,360.333,1902.7842,356.333,1898.7842,360.333,1907.7842" style="stroke:#595959;stroke-width:1.0;"/><text fill="#000000" font-family="Verdana" font-size="13" lengthAdjust="spacing" textLength="41" x="318.333" y="1874.0939">create</text></g><!--reverse link Point to Dimension--><g id="link_Point_Dimension"><path codeLine="146" d="M422.667,1891.8942 C422.667,1874.131 422.667,1869.099 422.667,1848.14 " fill="none" id="Point-backto-Dimension" style="stroke:#820000;stroke-width:1.0;"/><ellipse cx="422.667" cy="1899.8942" fill="#FFFFFF" rx="8" ry="8" style="stroke:#820000;stroke-width:1.0;"/><line style="stroke:#820000;stroke-width:1.0;" x1="422.667" x2="422.667" y1="1891.8942" y2="1907.8942"/><line style="stroke:#820000;stroke-width:1.0;" x1="430.667" x2="414.667" y1="1899.8942" y2="1899.8942"/></g><!--link Editor to Companion--><g id="link_Editor_Companion"><path codeLine="120" d="M425.75,638.82 C425.75,559.08 425.75,474.73 425.75,416.07 " fill="none" id="Editor-to-Companion" style="stroke:#595959;stroke-width:1.0;stroke-dasharray:7.0,7.0;"/><polygon fill="#595959" points="425.75,410.07,421.75,419.07,425.75,415.07,429.75,419.07,425.75,410.07" style="stroke:#595959;stroke-width:1.0;"/></g><!--link Editor to Dimension--><g id="link_Editor_Dimension"><path codeLine="121" d="M366.5,988.1 C366.5,1181.336 366.5,1474.004 366.5,1634.719 " fill="none" id="Editor-Dimension" style="stroke:#595959;stroke-width:1.0;"/><polygon fill="#595959" points="366.5,976.1,362.5,982.1,366.5,988.1,370.5,982.1,366.5,976.1" style="stroke:#595959;stroke-width:1.0;"/><polygon fill="#595959" points="366.5,1640.719,370.5,1631.719,366.5,1635.719,362.5,1631.719,366.5,1640.719" style="stroke:#595959;stroke-width:1.0;"/><text fill="#000000" font-family="Verdana" font-size="13" lengthAdjust="spacing" textLength="8" x="353.8781" y="996.1416">1</text><text fill="#000000" font-family="Verdana" font-size="13" lengthAdjust="spacing" textLength="21" x="343.1148" y="1614.8153">dm</text><text fill="#000000" font-family="Verdana" font-size="13" lengthAdjust="spacing" textLength="8" x="349.6148" y="1629.9481">1</text></g><!--link Editor to Dimension--><g id="link_Editor_Dimension"><path codeLine="122" d="M414,976.1 C414,1169.336 414,1474.004 414,1634.719 " fill="none" id="Editor-to-Dimension" style="stroke:#595959;stroke-width:1.0;stroke-dasharray:7.0,7.0;"/><polygon fill="#595959" points="414,1640.719,418,1631.719,414,1635.719,410,1631.719,414,1640.719" style="stroke:#595959;stroke-width:1.0;"/><text fill="#000000" font-family="Verdana" font-size="13" lengthAdjust="spacing" textLength="41" x="372" y="1304.4759">create</text></g><!--link Editor to Shape--><g id="link_Editor_Shape"><path codeLine="123" d="M485.333,976.14 C485.333,1101.153 485.333,1261.595 485.333,1367.676 " fill="none" id="Editor-to-Shape" style="stroke:#595959;stroke-width:1.0;stroke-dasharray:7.0,7.0;"/><polygon fill="#595959" points="485.333,1373.676,489.333,1364.676,485.333,1368.676,481.333,1364.676,485.333,1373.676" style="stroke:#595959;stroke-width:1.0;"/></g><!--link Editor to ShapesList--><g id="link_Editor_ShapesList"><path codeLine="124" d="M586.25,988.35 C586.25,1009.42 586.25,1011.806 586.25,1029.699 " fill="none" id="Editor-ShapesList" style="stroke:#595959;stroke-width:1.0;"/><polygon fill="#595959" points="586.25,976.35,582.25,982.35,586.25,988.35,590.25,982.35,586.25,976.35" style="stroke:#595959;stroke-width:1.0;"/><polygon fill="#595959" points="586.25,1035.699,590.25,1026.699,586.25,1030.699,582.25,1026.699,586.25,1035.699" style="stroke:#595959;stroke-width:1.0;"/><text fill="#000000" font-family="Verdana" font-size="13" lengthAdjust="spacing" textLength="8" x="583.5855" y="996.403">1</text><text fill="#000000" font-family="Verdana" font-size="13" lengthAdjust="spacing" textLength="46" x="528.8805" y="1009.7314">shapes</text><text fill="#000000" font-family="Verdana" font-size="13" lengthAdjust="spacing" textLength="8" x="547.8805" y="1024.8642">1</text></g><!--link EditorHandler to Editor--><g id="link_EditorHandler_Editor"><path codeLine="125" d="M554.75,591.07 C554.75,608.73 554.75,611.35 554.75,632.84 " fill="none" id="EditorHandler-Editor" style="stroke:#595959;stroke-width:1.0;"/><polygon fill="#595959" points="554.75,579.07,550.75,585.07,554.75,591.07,558.75,585.07,554.75,579.07" style="stroke:#595959;stroke-width:1.0;"/><polygon fill="#595959" points="554.75,638.84,558.75,629.84,554.75,633.84,550.75,629.84,554.75,638.84" style="stroke:#595959;stroke-width:1.0;"/><text fill="#000000" font-family="Verdana" font-size="13" lengthAdjust="spacing" textLength="8" x="527.8195" y="599.0861">1</text><text fill="#000000" font-family="Verdana" font-size="13" lengthAdjust="spacing" textLength="44" x="513.8426" y="612.583">editors</text><text fill="#000000" font-family="Verdana" font-size="13" lengthAdjust="spacing" textLength="7" x="532.3426" y="627.7158">*</text></g><!--link EditorHandler to ShapesList--><g id="link_EditorHandler_ShapesList"><path codeLine="126" d="M668.167,579.02 C668.167,685.92 668.167,916.48 668.167,1029.711 " fill="none" id="EditorHandler-to-ShapesList" style="stroke:#595959;stroke-width:1.0;stroke-dasharray:7.0,7.0;"/><polygon fill="#595959" points="668.167,1035.711,672.167,1026.711,668.167,1030.711,664.167,1026.711,668.167,1035.711" style="stroke:#595959;stroke-width:1.0;"/><text fill="#000000" font-family="Verdana" font-size="13" lengthAdjust="spacing" textLength="41" x="626.167" y="803.4269">create</text></g><!--link EditorHandler to ShapesList--><g id="link_EditorHandler_ShapesList"><path codeLine="127" d="M726.333,591.02 C726.333,697.92 726.333,916.48 726.333,1029.711 " fill="none" id="EditorHandler-ShapesList" style="stroke:#595959;stroke-width:1.0;"/><polygon fill="#595959" points="726.333,579.02,722.333,585.02,726.333,591.02,730.333,585.02,726.333,579.02" style="stroke:#595959;stroke-width:1.0;"/><polygon fill="#595959" points="726.333,1035.711,730.333,1026.711,726.333,1030.711,722.333,1026.711,726.333,1035.711" style="stroke:#595959;stroke-width:1.0;"/><text fill="#000000" font-family="Verdana" font-size="13" lengthAdjust="spacing" textLength="8" x="721.5356" y="599.4172">1</text><text fill="#000000" font-family="Verdana" font-size="13" lengthAdjust="spacing" textLength="46" x="683.4095" y="1009.7446">shapes</text><text fill="#000000" font-family="Verdana" font-size="13" lengthAdjust="spacing" textLength="8" x="702.4095" y="1024.8774">1</text></g><!--link MainController to Controller--><g id="link_MainController_Controller"><path codeLine="128" d="M969.833,394 C969.833,425.76 969.833,448.9 969.833,476.42 " fill="none" id="MainController-to-Controller" style="stroke:#000082;stroke-width:1.0;"/><polygon fill="none" points="969.833,494.42,975.833,476.42,963.833,476.42,969.833,494.42" style="stroke:#000082;stroke-width:1.0;"/></g><!--link MainController to Controller--><g id="link_MainController_Controller"><path codeLine="129" d="M1007.167,394 C1007.167,425.76 1007.167,460.9 1007.167,488.42 " fill="none" id="MainController-to-Controller-1" style="stroke:#595959;stroke-width:1.0;stroke-dasharray:7.0,7.0;"/><polygon fill="#595959" points="1007.167,494.42,1011.167,485.42,1007.167,489.42,1003.167,485.42,1007.167,494.42" style="stroke:#595959;stroke-width:1.0;"/><text fill="#000000" font-family="Verdana" font-size="13" lengthAdjust="spacing" textLength="41" x="965.167" y="440.2769">create</text></g><!--link MainController to EditorHandler--><g id="link_MainController_EditorHandler"><path codeLine="130" d="M884.833,406 C884.833,429.26 884.833,439.54 884.833,463.83 " fill="none" id="MainController-EditorHandler" style="stroke:#595959;stroke-width:1.0;"/><polygon fill="#595959" points="884.833,394,880.833,400,884.833,406,888.833,400,884.833,394" style="stroke:#595959;stroke-width:1.0;"/><polygon fill="#595959" points="884.833,469.83,888.833,460.83,884.833,464.83,880.833,460.83,884.833,469.83" style="stroke:#595959;stroke-width:1.0;"/><text fill="#000000" font-family="Verdana" font-size="13" lengthAdjust="spacing" textLength="8" x="862.3652" y="413.3394">1</text><text fill="#000000" font-family="Verdana" font-size="13" lengthAdjust="spacing" textLength="86" x="815.4059" y="443.8458">editorHandler</text><text fill="#000000" font-family="Verdana" font-size="13" lengthAdjust="spacing" textLength="8" x="854.4059" y="458.9786">1</text></g><!--link MainController to EditorHandler--><g id="link_MainController_EditorHandler"><path codeLine="131" d="M891.167,394 C891.167,417.26 891.167,439.54 891.167,463.83 " fill="none" id="MainController-to-EditorHandler" style="stroke:#595959;stroke-width:1.0;stroke-dasharray:7.0,7.0;"/><polygon fill="#595959" points="891.167,469.83,895.167,460.83,891.167,464.83,887.167,460.83,891.167,469.83" style="stroke:#595959;stroke-width:1.0;"/><text fill="#000000" font-family="Verdana" font-size="13" lengthAdjust="spacing" textLength="41" x="849.167" y="427.9769">create</text></g><!--link MainController to ScopeInfo--><g id="link_MainController_ScopeInfo"><path codeLine="132" d="M1085.83,394 C1085.83,422.58 1085.83,452.76 1085.83,479.78 " fill="none" id="MainController-to-ScopeInfo" style="stroke:#595959;stroke-width:1.0;stroke-dasharray:7.0,7.0;"/><polygon fill="#595959" points="1085.83,485.78,1089.83,476.78,1085.83,480.78,1081.83,476.78,1085.83,485.78" style="stroke:#595959;stroke-width:1.0;"/></g><!--reverse link ScopeInfo to MainController--><g id="link_ScopeInfo_MainController"><path codeLine="147" d="M1092.17,469.66 C1092.17,442.69 1092.17,422.63 1092.17,394.11 " fill="none" id="ScopeInfo-backto-MainController" style="stroke:#820000;stroke-width:1.0;"/><ellipse cx="1092.17" cy="477.66" fill="#FFFFFF" rx="8" ry="8" style="stroke:#820000;stroke-width:1.0;"/><line style="stroke:#820000;stroke-width:1.0;" x1="1092.17" x2="1092.17" y1="469.66" y2="485.66"/><line style="stroke:#820000;stroke-width:1.0;" x1="1100.17" x2="1084.17" y1="477.66" y2="477.66"/></g><!--link MainView to Companion--><g id="link_MainView_Companion"><path codeLine="133" d="M598.5,225.23 C598.5,256.14 598.5,291 598.5,291 C598.5,291 547.756,291 482.59,291 " fill="none" id="MainView-to-Companion" style="stroke:#595959;stroke-width:1.0;stroke-dasharray:7.0,7.0;"/><polygon fill="#595959" points="476.59,291,485.59,295,481.59,291,485.59,287,476.59,291" style="stroke:#595959;stroke-width:1.0;"/></g><!--link MainView to Companion--><g id="link_MainView_Companion"><path codeLine="134" d="M636.5,225.28 C636.5,258.04 636.5,296 636.5,296 C636.5,296 564.893,296 482.663,296 " fill="none" id="MainView-to-Companion-1" style="stroke:#595959;stroke-width:1.0;stroke-dasharray:7.0,7.0;"/><polygon fill="#595959" points="476.663,296,485.663,300,481.663,296,485.663,292,476.663,296" style="stroke:#595959;stroke-width:1.0;"/></g><!--link MainView to MainController--><g id="link_MainView_MainController"><path codeLine="135" d="M674.5,225.27 C674.5,275.44 674.5,348 674.5,348 C674.5,348 781.761,348 872.237,348 " fill="none" id="MainView-to-MainController" style="stroke:#595959;stroke-width:1.0;stroke-dasharray:7.0,7.0;"/><polygon fill="#595959" points="878.237,348,869.237,344,873.237,348,869.237,352,878.237,348" style="stroke:#595959;stroke-width:1.0;"/></g><!--link MainView to ScopeInfo--><g id="link_MainView_ScopeInfo"><path codeLine="136" d="M712.654,179 C860.058,179 1170,179 1170,179 C1170,179 1170,389.72 1170,479.87 " fill="none" id="MainView-to-ScopeInfo" style="stroke:#595959;stroke-width:1.0;stroke-dasharray:7.0,7.0;"/><polygon fill="#595959" points="1170,485.87,1174,476.87,1170,480.87,1166,476.87,1170,485.87" style="stroke:#595959;stroke-width:1.0;"/><text fill="#000000" font-family="Verdana" font-size="13" lengthAdjust="spacing" textLength="41" x="1052.76" y="175.0669">create</text></g><!--link MyApp to MainView--><g id="link_MyApp_MainView"><path codeLine="137" d="M636.5,72.29 C636.5,89.81 636.5,106.21 636.5,125.93 " fill="none" id="MyApp-to-MainView" style="stroke:#595959;stroke-width:1.0;stroke-dasharray:7.0,7.0;"/><polygon fill="#595959" points="636.5,131.93,640.5,122.93,636.5,126.93,632.5,122.93,636.5,131.93" style="stroke:#595959;stroke-width:1.0;"/></g><!--link Shape to Dimension--><g id="link_Shape_Dimension"><path codeLine="138" d="M486.333,1581.111 C486.333,1600.754 486.333,1615.306 486.333,1634.947 " fill="none" id="Shape-to-Dimension" style="stroke:#595959;stroke-width:1.0;stroke-dasharray:7.0,7.0;"/><polygon fill="#595959" points="486.333,1640.947,490.333,1631.947,486.333,1635.947,482.333,1631.947,486.333,1640.947" style="stroke:#595959;stroke-width:1.0;"/><text fill="#000000" font-family="Verdana" font-size="13" lengthAdjust="spacing" textLength="41" x="444.333" y="1607.0959">create</text></g><!--link Shape to Dimension--><g id="link_Shape_Dimension"><path codeLine="139" d="M511.167,1593.111 C511.167,1612.754 511.167,1615.306 511.167,1634.947 " fill="none" id="Shape-Dimension" style="stroke:#595959;stroke-width:1.0;"/><polygon fill="#595959" points="511.167,1581.111,507.167,1587.111,511.167,1593.111,515.167,1587.111,511.167,1581.111" style="stroke:#595959;stroke-width:1.0;"/><polygon fill="#595959" points="511.167,1640.947,515.167,1631.947,511.167,1635.947,507.167,1631.947,511.167,1640.947" style="stroke:#595959;stroke-width:1.0;"/><text fill="#000000" font-family="Verdana" font-size="13" lengthAdjust="spacing" textLength="8" x="498.7842" y="1600.9962">1</text><text fill="#000000" font-family="Verdana" font-size="13" lengthAdjust="spacing" textLength="21" x="497.8428" y="1614.6886">dm</text><text fill="#000000" font-family="Verdana" font-size="13" lengthAdjust="spacing" textLength="8" x="504.3428" y="1629.8214">1</text></g><!--link Shape to Shape--><g id="link_Shape_Shape"><path codeLine="140" d="M629.333,1373.96 C629.333,1356.553 629.333,1344 629.333,1344 C629.333,1344 684.75,1344 684.75,1344 C684.75,1344 684.75,1601 684.75,1601 C684.75,1601 606.75,1601 606.75,1601 C606.75,1601 606.75,1599.038 606.75,1587.158 " fill="none" id="Shape-to-Shape" style="stroke:#595959;stroke-width:1.0;stroke-dasharray:7.0,7.0;"/><polygon fill="#595959" points="606.75,1581.158,602.75,1590.158,606.75,1586.158,610.75,1590.158,606.75,1581.158" style="stroke:#595959;stroke-width:1.0;"/></g><!--link ShapeIterator to Shape--><g id="link_ShapeIterator_Shape"><path codeLine="141" d="M581.167,1314.106 C581.167,1331.869 581.167,1346.901 581.167,1367.86 " fill="none" id="ShapeIterator-to-Shape" style="stroke:#595959;stroke-width:1.0;stroke-dasharray:7.0,7.0;"/><polygon fill="#595959" points="581.167,1373.86,585.167,1364.86,581.167,1368.86,577.167,1364.86,581.167,1373.86" style="stroke:#595959;stroke-width:1.0;"/></g><!--reverse link ShapeIterator to ShapesList--><g id="link_ShapeIterator_ShapesList"><path codeLine="142" d="M605.667,1204.873 C605.667,1186.407 605.667,1180.899 605.667,1161.111 " fill="none" id="ShapeIterator-backto-ShapesList" style="stroke:#820000;stroke-width:1.0;"/><ellipse cx="605.667" cy="1212.873" fill="#FFFFFF" rx="8" ry="8" style="stroke:#820000;stroke-width:1.0;"/><line style="stroke:#820000;stroke-width:1.0;" x1="605.667" x2="605.667" y1="1204.873" y2="1220.873"/><line style="stroke:#820000;stroke-width:1.0;" x1="613.667" x2="597.667" y1="1212.873" y2="1212.873"/></g><!--link ShapesList to ShapeIterator--><g id="link_ShapesList_ShapeIterator"><path codeLine="144" d="M648.833,1161.429 C648.833,1181.137 648.833,1196.522 648.833,1214.894 " fill="none" id="ShapesList-to-ShapeIterator" style="stroke:#595959;stroke-width:1.0;stroke-dasharray:7.0,7.0;"/><polygon fill="#595959" points="648.833,1220.894,652.833,1211.894,648.833,1215.894,644.833,1211.894,648.833,1220.894" style="stroke:#595959;stroke-width:1.0;"/><text fill="#000000" font-family="Verdana" font-size="13" lengthAdjust="spacing" textLength="41" x="606.833" y="1187.2279">create</text></g><!--link ShapesList to Shape--><g id="link_ShapesList_Shape"><path codeLine="143" d="M550.067,1099 C520.76,1099 509.167,1099 509.167,1099 C509.167,1099 509.167,1255.764 509.167,1367.823 " fill="none" id="ShapesList-Shape" style="stroke:#595959;stroke-width:1.0;"/><polygon fill="#595959" points="562.067,1099,556.067,1095,550.067,1099,556.067,1103,562.067,1099" style="stroke:#595959;stroke-width:1.0;"/><polygon fill="#595959" points="509.167,1373.823,513.167,1364.823,509.167,1368.823,505.167,1364.823,509.167,1373.823" style="stroke:#595959;stroke-width:1.0;"/><text fill="#000000" font-family="Verdana" font-size="13" lengthAdjust="spacing" textLength="8" x="546.6721" y="1095.6072">1</text><text fill="#000000" font-family="Verdana" font-size="13" lengthAdjust="spacing" textLength="58" x="445.1649" y="1347.9263">shapeArr</text><text fill="#000000" font-family="Verdana" font-size="13" lengthAdjust="spacing" textLength="7" x="470.6649" y="1363.0591">*</text></g><!--link ToolBar to ToolBar--><g id="link_ToolBar_ToolBar"><path codeLine="145" d="M240.75,494.34 C240.75,487.9 240.75,483 240.75,483 C240.75,483 187.25,483 187.25,483 C187.25,483 187.25,567 187.25,567 C187.25,567 213,567 213,567 C213,567 213,567.75 213,560.93 " fill="none" id="ToolBar-to-ToolBar" style="stroke:#595959;stroke-width:1.0;stroke-dasharray:7.0,7.0;"/><polygon fill="#595959" points="213,554.93,209,563.93,213,559.93,217,563.93,213,554.93" style="stroke:#595959;stroke-width:1.0;"/></g><!--SRC=[jLRTRjis5BxNKvmvDrfZ0rk10PqH64YSP0kGjCQIRHTj1Z0IQn6LIOsaath3dcYFiBi-sVWdYQGaMyam6R34ytyEp_d8hsI1DnYg4X6QI5Q1PF30f6GRo0d7cIIC9k8JeHNYQ0CbeLZkAWoCou8bILOY8M39DXMYIXB-J02E8UCOIPnUv4Go_YEYUOdv5Aw9a2UMTaK_iiNNSxXZh3n3FFdhlngwmNIxpv1aIyOfvkavsM0g54CfDTzEvEBtBIhtI7paR9EUi-r3YQVG_mvqsc2evAnKiRjeMaAg51gvHjE9DMiZfIa2omkQftjyEgbRYRWy92VPhUI4hhLv-sMBpghT7Glgy3Cbik5TcZ9qkL1WiYxatBdJ58wUvh12X9-i6A5o2kQrqAmdail2btrWMveZJh3eLQcBPFVTLSWkqji2LLZejfZ23nnL1Sc4hZ7-B6tbZe3H6xOL-2TSOYHmdfhLnIEcqa-lL2OmlME68TAMTGGSvoeRZpI3JDdYWL35yIF1JzTgIWAwyxxYM0mvFzBRjhBwAyugpAKgHU1F1t1QbdsMppbQhmSiGxu9TnwoBLSkCXKCuugrQHQQAKmnLKSqHMseZgZNrQ0-AkMmyNKsZtV812HvEQ0Kxhl3W63x7IszGTM9RUEfuroYJFtl5bDO8lg8X6s66QonVCUN1blg3Z9wYc_NGJCi2qJNQYli-zfGCNUk5dxxwDf7zWolpk56WMm734AY6tN0VchpCDEMBpJ-pJk063ZyHJMKvqelQoUwxFCe03EsZAanFcCynto5A6xjMPYjpTbLgj_lxtqakzcTLbKjfRy3d3DDvBZcE-qTsfcTY9vHE8Pe5XrX4B8CmhdMjRA_4bdqsbRo9UDg_zWdrUzBlUYV8Ssv96Nf2VLrTv3qbSGSjV0Lq1gGBv1ugpJr-aoTZnXPjAQEPlC8p9efzMqQGdf5PMrp0EfHdblmz0j6l83gu4wCb05kGVvGXL6scnZSAUu2SAlKDELRbkE5tNk5IKJkmEAvapNVtMDAk_didmsxPj7OkLNxYdMtrtdNwzIVTSZCOku0GAadxTN0FSUpzqTlNd-Zdgcv1jtFm3kAxTFLKahVVQz_qno90kVtiqLNRGwJBt_RIyoNVoOZZOH8Dzht2zNgaOQH8VTLAxOnJgjk6tXUZMErAE1u2yPjr4WrsxizNjsjf7rwrUC4EsgJRoVmgbLrfLh09Dzye8hN2NkStmDjESw8HUts6H-ylL6O13ouyesqNJjen1ru7-Yh2SIUErRsPE0vxot3Y53svHCTyIOItVPlNjS6VWC818Qq-jedL8lYZuqSAALBrAJHmOvn0SLg1m8Qs9K6o9FcklAyAVfVrU8aHggrMSL5CLUZGyCMEqdYwNlHeCT6dWqtuwBe84LuztcvMjyfqfd0cB1_Z4yvDv3IxzmpioTcByIeuF5PDUv4IzfZPjpbf6ss_kCvQE5_0G00]--></g></svg>